<mxfile host="65bd71144e">
    <diagram id="NQBmBVCwTu-ZauF4DziT" name="Página-1">
        <mxGraphModel dx="2254" dy="1836" grid="1" gridSize="10" guides="1" tooltips="1" connect="1" arrows="1" fold="1" page="1" pageScale="1" pageWidth="827" pageHeight="1169" math="0" shadow="0">
            <root>
                <mxCell id="0"/>
                <mxCell id="1" parent="0"/>
                <mxCell id="2" value="" style="rounded=1;whiteSpace=wrap;html=1;strokeColor=#66FF66;strokeWidth=5;align=left;" parent="1" vertex="1">
                    <mxGeometry x="15" y="40" width="500" height="440" as="geometry"/>
                </mxCell>
                <mxCell id="3" value="User" style="shape=hexagon;perimeter=hexagonPerimeter2;whiteSpace=wrap;html=1;fixedSize=1;strokeColor=#3333FF;strokeWidth=5;" parent="1" vertex="1">
                    <mxGeometry x="40" y="140" width="120" height="80" as="geometry"/>
                </mxCell>
                <mxCell id="4" value="Bills" style="text;html=1;align=center;verticalAlign=middle;whiteSpace=wrap;rounded=0;strokeColor=#66FF66;" parent="1" vertex="1">
                    <mxGeometry x="80" y="10" width="60" height="30" as="geometry"/>
                </mxCell>
                <mxCell id="6" value="Bill" style="shape=hexagon;perimeter=hexagonPerimeter2;whiteSpace=wrap;html=1;fixedSize=1;strokeColor=#3333FF;strokeWidth=5;" parent="1" vertex="1">
                    <mxGeometry x="40" y="310" width="120" height="80" as="geometry"/>
                </mxCell>
                <mxCell id="7" value="RN: No dia em que a conta estiver para vencer, deve ser disparado um email ao usuário o avisando do vencimento as 9 da manhã" style="text;html=1;strokeColor=none;fillColor=none;align=center;verticalAlign=middle;whiteSpace=wrap;rounded=0;" parent="1" vertex="1">
                    <mxGeometry x="30" y="440" width="470" height="30" as="geometry"/>
                </mxCell>
                <mxCell id="8" value="" style="rounded=1;whiteSpace=wrap;html=1;strokeColor=#FF3333;strokeWidth=5;align=left;" parent="1" vertex="1">
                    <mxGeometry x="770" y="40" width="500" height="440" as="geometry"/>
                </mxCell>
                <mxCell id="9" value="Comunicação" style="text;html=1;strokeColor=none;fillColor=none;align=center;verticalAlign=middle;whiteSpace=wrap;rounded=0;" parent="1" vertex="1">
                    <mxGeometry x="850" y="10" width="60" height="30" as="geometry"/>
                </mxCell>
                <mxCell id="10" value="Receiver" style="shape=hexagon;perimeter=hexagonPerimeter2;whiteSpace=wrap;html=1;fixedSize=1;strokeColor=#6600CC;strokeWidth=5;" parent="1" vertex="1">
                    <mxGeometry x="810" y="120" width="120" height="80" as="geometry"/>
                </mxCell>
                <mxCell id="11" value="Email" style="shape=hexagon;perimeter=hexagonPerimeter2;whiteSpace=wrap;html=1;fixedSize=1;strokeColor=#6600CC;strokeWidth=5;" parent="1" vertex="1">
                    <mxGeometry x="810" y="290" width="120" height="80" as="geometry"/>
                </mxCell>
                <mxCell id="12" value="MB: Kafka" style="shape=process;whiteSpace=wrap;html=1;backgroundOutline=1;strokeColor=#00CCCC;strokeWidth=5;size=0;" parent="1" vertex="1">
                    <mxGeometry x="570" y="220" width="150" height="60" as="geometry"/>
                </mxCell>
                <mxCell id="13" value="" style="shape=flexArrow;endArrow=classic;html=1;entryX=0;entryY=0.5;entryDx=0;entryDy=0;exitX=0.999;exitY=0.477;exitDx=0;exitDy=0;exitPerimeter=0;fillColor=#a20025;strokeColor=#6F0000;" parent="1" source="2" target="12" edge="1">
                    <mxGeometry width="50" height="50" relative="1" as="geometry">
                        <mxPoint x="430" y="280" as="sourcePoint"/>
                        <mxPoint x="480" y="230" as="targetPoint"/>
                    </mxGeometry>
                </mxCell>
                <mxCell id="14" value="PUB" style="text;html=1;strokeColor=none;fillColor=none;align=center;verticalAlign=middle;whiteSpace=wrap;rounded=0;" parent="1" vertex="1">
                    <mxGeometry x="510" y="220" width="60" height="30" as="geometry"/>
                </mxCell>
                <mxCell id="17" value="" style="shape=flexArrow;endArrow=classic;html=1;entryX=1;entryY=0.5;entryDx=0;entryDy=0;fillColor=#a20025;strokeColor=#6F0000;endWidth=20;endSize=6.18;exitX=-0.002;exitY=0.479;exitDx=0;exitDy=0;exitPerimeter=0;" parent="1" source="8" target="12" edge="1">
                    <mxGeometry width="50" height="50" relative="1" as="geometry">
                        <mxPoint x="750" y="300" as="sourcePoint"/>
                        <mxPoint x="770.5" y="250.12" as="targetPoint"/>
                    </mxGeometry>
                </mxCell>
                <mxCell id="18" value="SUB" style="text;html=1;strokeColor=none;fillColor=none;align=center;verticalAlign=middle;whiteSpace=wrap;rounded=0;" parent="1" vertex="1">
                    <mxGeometry x="720" y="220" width="60" height="30" as="geometry"/>
                </mxCell>
                <mxCell id="19" value="User" style="swimlane;fontStyle=0;childLayout=stackLayout;horizontal=1;startSize=30;horizontalStack=0;resizeParent=1;resizeParentMax=0;resizeLast=0;collapsible=1;marginBottom=0;strokeColor=#3333FF;strokeWidth=5;" parent="1" vertex="1">
                    <mxGeometry x="280" y="110" width="140" height="120" as="geometry"/>
                </mxCell>
                <mxCell id="20" value="Auth0UserId" style="text;strokeColor=none;fillColor=none;align=left;verticalAlign=middle;spacingLeft=4;spacingRight=4;overflow=hidden;points=[[0,0.5],[1,0.5]];portConstraint=eastwest;rotatable=0;" parent="19" vertex="1">
                    <mxGeometry y="30" width="140" height="30" as="geometry"/>
                </mxCell>
                <mxCell id="21" value="Id" style="text;strokeColor=none;fillColor=none;align=left;verticalAlign=middle;spacingLeft=4;spacingRight=4;overflow=hidden;points=[[0,0.5],[1,0.5]];portConstraint=eastwest;rotatable=0;" parent="19" vertex="1">
                    <mxGeometry y="60" width="140" height="30" as="geometry"/>
                </mxCell>
                <mxCell id="22" value="Bills" style="text;strokeColor=none;fillColor=none;align=left;verticalAlign=middle;spacingLeft=4;spacingRight=4;overflow=hidden;points=[[0,0.5],[1,0.5]];portConstraint=eastwest;rotatable=0;" parent="19" vertex="1">
                    <mxGeometry y="90" width="140" height="30" as="geometry"/>
                </mxCell>
                <mxCell id="23" value="&lt;div class=&quot;css-1dbjc4n r-1ro0kt6 r-18u37iz r-16y2uox r-1wbh5a2 r-1777fci&quot;&gt;&lt;div class=&quot;css-1dbjc4n r-1ro0kt6 r-16y2uox r-1wbh5a2 r-1vco6b3 r-9aemit&quot;&gt;&lt;div class=&quot;css-1dbjc4n&quot;&gt;&lt;div class=&quot;css-1dbjc4n&quot;&gt;&lt;li class=&quot;css-4rbku5 r-1oszu61 r-1xc7w19 r-1phboty r-1yadl64 r-deolkf r-6koalj r-1mlwlqe r-eqz5dr r-1q142lx r-crgep1 r-ifefl9 r-bcqeeo r-t60dpp r-iphfwy r-wk8lta r-1yzf0co r-bnwqim r-417010&quot;&gt;&lt;div class=&quot;r-1oszu61 r-1xc7w19 r-1phboty r-1yadl64 r-deolkf r-6koalj r-1ro0kt6 r-18u37iz r-16y2uox r-1wbh5a2 r-crgep1 r-ifefl9 r-bcqeeo r-t60dpp r-bnwqim r-417010&quot;&gt;&lt;div class=&quot;css-1dbjc4n r-13awgt0&quot;&gt;&lt;div class=&quot;r-1oszu61 r-1xc7w19 r-1phboty r-1yadl64 r-deolkf r-6koalj r-1mlwlqe r-eqz5dr r-1q142lx r-crgep1 r-ifefl9 r-bcqeeo r-t60dpp r-bnwqim r-417010&quot;&gt;&lt;div dir=&quot;auto&quot; class=&quot;css-901oao r-z9jf92 r-gg6oyi r-ubezar r-16dba41 r-135wba7 r-fdjqy7 r-1xnzce8&quot;&gt;&lt;span&gt;Me (Query que utilizaremos para trazer as informações do usuário logado). &lt;/span&gt;&lt;/div&gt;&lt;/div&gt;&lt;/div&gt;&lt;/div&gt;&lt;/li&gt;&lt;/div&gt;&lt;/div&gt;&lt;/div&gt;&lt;/div&gt;&lt;div class=&quot;css-1dbjc4n r-1ro0kt6 r-18u37iz r-16y2uox r-1wbh5a2 r-1777fci&quot;&gt;&lt;div class=&quot;css-1dbjc4n r-1ro0kt6 r-16y2uox r-1wbh5a2 r-1vco6b3 r-9aemit&quot;&gt;&lt;div class=&quot;css-1dbjc4n&quot;&gt;&lt;div class=&quot;css-1dbjc4n&quot;&gt;&lt;li class=&quot;css-4rbku5 r-1oszu61 r-1xc7w19 r-1phboty r-1yadl64 r-deolkf r-6koalj r-1mlwlqe r-eqz5dr r-1q142lx r-crgep1 r-ifefl9 r-bcqeeo r-t60dpp r-iphfwy r-1h8ys4a r-1yzf0co r-bnwqim r-417010&quot;&gt;&lt;div class=&quot;r-1oszu61 r-1xc7w19 r-1phboty r-1yadl64 r-deolkf r-6koalj r-1ro0kt6 r-18u37iz r-16y2uox r-1wbh5a2 r-crgep1 r-ifefl9 r-bcqeeo r-t60dpp r-bnwqim r-417010&quot;&gt;&lt;div class=&quot;r-1awozwy r-1xc7w19 r-1phboty r-1yadl64 r-deolkf r-6koalj r-1mlwlqe r-18u37iz r-1q142lx r-1472mwg r-crgep1 r-ifefl9 r-bcqeeo r-t60dpp r-1m04atk r-1pyaxff r-bnwqim r-417010&quot;&gt;&lt;/div&gt;&lt;div class=&quot;css-1dbjc4n r-13awgt0&quot;&gt;&lt;div class=&quot;r-1oszu61 r-1xc7w19 r-1phboty r-1yadl64 r-deolkf r-6koalj r-1mlwlqe r-eqz5dr r-1q142lx r-crgep1 r-ifefl9 r-bcqeeo r-t60dpp r-bnwqim r-417010&quot;&gt;&lt;div dir=&quot;auto&quot; class=&quot;css-901oao r-z9jf92 r-gg6oyi r-ubezar r-16dba41 r-135wba7 r-fdjqy7 r-1xnzce8&quot;&gt;&lt;span&gt;CreateBill (Mutation que utilizaremos para criar uma conta no serviço de contas).&lt;/span&gt;&lt;/div&gt;&lt;/div&gt;&lt;/div&gt;&lt;/div&gt;&lt;/li&gt;&lt;/div&gt;&lt;/div&gt;&lt;/div&gt;&lt;/div&gt;&lt;div class=&quot;css-1dbjc4n r-1ro0kt6 r-18u37iz r-16y2uox r-1wbh5a2 r-1777fci&quot;&gt;&lt;div class=&quot;css-1dbjc4n r-1ro0kt6 r-16y2uox r-1wbh5a2 r-1vco6b3 r-9aemit&quot;&gt;&lt;div class=&quot;css-1dbjc4n&quot;&gt;&lt;div class=&quot;css-1dbjc4n&quot;&gt;&lt;li class=&quot;css-4rbku5 r-1oszu61 r-1xc7w19 r-1phboty r-1yadl64 r-deolkf r-6koalj r-1mlwlqe r-eqz5dr r-1q142lx r-crgep1 r-ifefl9 r-bcqeeo r-t60dpp r-iphfwy r-1h8ys4a r-1yzf0co r-bnwqim r-417010&quot;&gt;&lt;div class=&quot;r-1oszu61 r-1xc7w19 r-1phboty r-1yadl64 r-deolkf r-6koalj r-1ro0kt6 r-18u37iz r-16y2uox r-1wbh5a2 r-crgep1 r-ifefl9 r-bcqeeo r-t60dpp r-bnwqim r-417010&quot;&gt;&lt;div class=&quot;r-1awozwy r-1xc7w19 r-1phboty r-1yadl64 r-deolkf r-6koalj r-1mlwlqe r-18u37iz r-1q142lx r-1472mwg r-crgep1 r-ifefl9 r-bcqeeo r-t60dpp r-1m04atk r-1pyaxff r-bnwqim r-417010&quot;&gt;&lt;/div&gt;&lt;div class=&quot;css-1dbjc4n r-13awgt0&quot;&gt;&lt;div class=&quot;r-1oszu61 r-1xc7w19 r-1phboty r-1yadl64 r-deolkf r-6koalj r-1mlwlqe r-eqz5dr r-1q142lx r-crgep1 r-ifefl9 r-bcqeeo r-t60dpp r-bnwqim r-417010&quot;&gt;&lt;div dir=&quot;auto&quot; class=&quot;css-901oao r-z9jf92 r-gg6oyi r-ubezar r-16dba41 r-135wba7 r-fdjqy7 r-1xnzce8&quot;&gt;&lt;span&gt;UpdateBill (Mutation que utilizaremos para atualizar uma conta no serviço de contas).&lt;/span&gt;&lt;/div&gt;&lt;/div&gt;&lt;/div&gt;&lt;/div&gt;&lt;/li&gt;&lt;/div&gt;&lt;/div&gt;&lt;/div&gt;&lt;/div&gt;&lt;div class=&quot;css-1dbjc4n r-1ro0kt6 r-18u37iz r-16y2uox r-1wbh5a2 r-1777fci&quot;&gt;&lt;div class=&quot;css-1dbjc4n r-1ro0kt6 r-16y2uox r-1wbh5a2 r-1vco6b3 r-9aemit&quot;&gt;&lt;div class=&quot;css-1dbjc4n&quot;&gt;&lt;div class=&quot;css-1dbjc4n&quot;&gt;&lt;li class=&quot;css-4rbku5 r-1oszu61 r-1xc7w19 r-1phboty r-1yadl64 r-deolkf r-6koalj r-1mlwlqe r-eqz5dr r-1q142lx r-crgep1 r-ifefl9 r-bcqeeo r-t60dpp r-1mdbw0j r-1h8ys4a r-1yzf0co r-bnwqim r-417010&quot;&gt;&lt;div class=&quot;r-1oszu61 r-1xc7w19 r-1phboty r-1yadl64 r-deolkf r-6koalj r-1ro0kt6 r-18u37iz r-16y2uox r-1wbh5a2 r-crgep1 r-ifefl9 r-bcqeeo r-t60dpp r-bnwqim r-417010&quot;&gt;&lt;div class=&quot;r-1awozwy r-1xc7w19 r-1phboty r-1yadl64 r-deolkf r-6koalj r-1mlwlqe r-18u37iz r-1q142lx r-1472mwg r-crgep1 r-ifefl9 r-bcqeeo r-t60dpp r-1m04atk r-1pyaxff r-bnwqim r-417010&quot;&gt;&lt;/div&gt;&lt;div class=&quot;css-1dbjc4n r-13awgt0&quot;&gt;&lt;div class=&quot;r-1oszu61 r-1xc7w19 r-1phboty r-1yadl64 r-deolkf r-6koalj r-1mlwlqe r-eqz5dr r-1q142lx r-crgep1 r-ifefl9 r-bcqeeo r-t60dpp r-bnwqim r-417010&quot;&gt;&lt;div dir=&quot;auto&quot; class=&quot;css-901oao r-z9jf92 r-gg6oyi r-ubezar r-16dba41 r-135wba7 r-fdjqy7 r-1xnzce8&quot;&gt;&lt;span&gt;DeleteBill (Mutation que utilizaremos para deletar uma conta no serviço de contas).&lt;/span&gt;&lt;/div&gt;&lt;/div&gt;&lt;/div&gt;&lt;/div&gt;&lt;/li&gt;&lt;/div&gt;&lt;/div&gt;&lt;/div&gt;&lt;/div&gt;" style="text;html=1;strokeColor=none;fillColor=none;align=center;verticalAlign=middle;whiteSpace=wrap;rounded=0;fontStyle=1" parent="1" vertex="1">
                    <mxGeometry x="-380" y="-230" width="1150" height="150" as="geometry"/>
                </mxCell>
                <mxCell id="32" style="edgeStyle=none;html=1;exitX=0.5;exitY=1;exitDx=0;exitDy=0;entryX=0.5;entryY=0;entryDx=0;entryDy=0;fontSize=23;" edge="1" parent="1" source="24" target="31">
                    <mxGeometry relative="1" as="geometry"/>
                </mxCell>
                <mxCell id="24" value="FindBillsByUserUseCase" style="rounded=1;whiteSpace=wrap;html=1;strokeWidth=7;fontSize=23;strokeColor=#FF6666;" vertex="1" parent="1">
                    <mxGeometry x="90" y="-940" width="320" height="160" as="geometry"/>
                </mxCell>
                <mxCell id="35" style="edgeStyle=none;html=1;exitX=1;exitY=0.5;exitDx=0;exitDy=0;entryX=0;entryY=0.5;entryDx=0;entryDy=0;fontSize=23;" edge="1" parent="1" source="27" target="28">
                    <mxGeometry relative="1" as="geometry"/>
                </mxCell>
                <mxCell id="27" value="UsersRepository" style="rounded=1;whiteSpace=wrap;html=1;fontSize=23;strokeColor=#B3FF66;strokeWidth=7;" vertex="1" parent="1">
                    <mxGeometry x="-330" y="-510" width="360" height="140" as="geometry"/>
                </mxCell>
                <mxCell id="34" style="edgeStyle=none;html=1;exitX=0.25;exitY=0;exitDx=0;exitDy=0;entryX=0.9;entryY=1;entryDx=0;entryDy=0;entryPerimeter=0;fontSize=23;" edge="1" parent="1" source="28" target="31">
                    <mxGeometry relative="1" as="geometry"/>
                </mxCell>
                <mxCell id="28" value="BillsRepository" style="rounded=1;whiteSpace=wrap;html=1;fontSize=23;strokeColor=#B3FF66;strokeWidth=7;" vertex="1" parent="1">
                    <mxGeometry x="280" y="-510" width="360" height="140" as="geometry"/>
                </mxCell>
                <mxCell id="31" value="IBillsRepository" style="rounded=0;whiteSpace=wrap;html=1;fontSize=23;strokeColor=#FF6666;strokeWidth=7;" vertex="1" parent="1">
                    <mxGeometry x="100" y="-720" width="300" height="100" as="geometry"/>
                </mxCell>
            </root>
        </mxGraphModel>
    </diagram>
</mxfile>